<svg id="Layer_1" data-name="Layer 1" xmlns="http://www.w3.org/2000/svg" viewBox="0 0 1000 1000"><path d="M455.88,86.68q2.82-1.4,5.73-2.63c59-25.22,122.17,14.16,182.76,13.64,55.94-.48,109.19-29.14,165.12-28.12,16.65.3,33.84,3.51,47.47,13.41,14.82,10.75,23.77,28.05,36.3,41.57,29.08,31.4,78.49,44.14,93.22,84.89,11.62,32.12-4,67.06-16.32,98.9-21.11,54.51-33.07,115.92-15.87,171.89,12.32,40.07,38.93,75.28,44.58,116.92,5,36.58-7,74.05-24.26,106-22.92,42.45-22.75,91-34,136.85-7.34,30-22.27,60.29-49.25,75.29-24.24,13.48-52.7,12.05-79.48,13.53-27.68,1.54-54.19,2.92-82-.3-46.89-5.45-93-16.79-140.13-20.11-86-6-171.5,14.85-257.58,19.3-47.5,2.45-97.87-1-137.6-28-33.89-23.08-56.4-61.76-65-102.83s-4.05-84.28,8.2-124.34c14.91-48.77,41.43-96.58,35.79-147.41-3.53-31.87-19.5-60.64-28.6-91.3-12.5-42.08-11.51-89.2,7.09-128.8a140.05,140.05,0,0,1,50.11-57.91c24.87-16.06,52.83-12.58,80-22.87C352.59,197.59,389.73,119.17,455.88,86.68Z" style="fill:#d4ccff"/><path d="M905,457H888a113.52,113.52,0,0,0-12.84-31l12-12a10.22,10.22,0,0,0,0-14.47l-24.79-24.8a10.24,10.24,0,0,0-14.47,0l-12,12a113.61,113.61,0,0,0-31-12.85v-17a10.24,10.24,0,0,0-10.24-10.24H759.58a10.24,10.24,0,0,0-10.23,10.24v17a113.54,113.54,0,0,0-31,12.85l-12-12a10.24,10.24,0,0,0-14.47,0L667,399.52A10.24,10.24,0,0,0,667,414l12.05,12a113.54,113.54,0,0,0-12.85,31h-17A10.23,10.23,0,0,0,639,467.26v35.07a10.23,10.23,0,0,0,10.24,10.23h17a113.48,113.48,0,0,0,12.85,31L667,555.6a10.24,10.24,0,0,0,0,14.47l24.8,24.79a10.22,10.22,0,0,0,14.47,0l12-12a113.52,113.52,0,0,0,31,12.84v17a10.23,10.23,0,0,0,10.23,10.23h35.06a10.23,10.23,0,0,0,10.24-10.23v-17a113.59,113.59,0,0,0,31-12.84l12,12a10.22,10.22,0,0,0,14.47,0l24.79-24.79a10.22,10.22,0,0,0,0-14.47l-12-12.05a113.46,113.46,0,0,0,12.84-31h17a10.23,10.23,0,0,0,10.23-10.23V467.26A10.23,10.23,0,0,0,905,457ZM777.11,554a69.17,69.17,0,1,1,69.17-69.17A69.17,69.17,0,0,1,777.11,554Z" style="fill:#8550fc"/><path d="M546.87,426.24H534.19a84.94,84.94,0,0,0-9.57-23.09l9-9a7.62,7.62,0,0,0,0-10.78l-18.46-18.47a7.63,7.63,0,0,0-10.78,0l-9,9a84.37,84.37,0,0,0-23.09-9.57V351.65a7.62,7.62,0,0,0-7.62-7.62H438.54a7.62,7.62,0,0,0-7.62,7.62v12.69a84.66,84.66,0,0,0-23.09,9.56l-9-9a7.63,7.63,0,0,0-10.78,0L369.61,383.4a7.62,7.62,0,0,0,0,10.78l9,9A84.94,84.94,0,0,0,369,426.24H356.33a7.63,7.63,0,0,0-7.62,7.63V460a7.62,7.62,0,0,0,7.62,7.62H369a84.68,84.68,0,0,0,9.57,23.09l-9,9a7.62,7.62,0,0,0,0,10.78l18.47,18.47a7.62,7.62,0,0,0,10.78,0l9-9a84.68,84.68,0,0,0,23.09,9.57V542.2a7.62,7.62,0,0,0,7.62,7.62h26.12a7.62,7.62,0,0,0,7.62-7.62V529.52A84.68,84.68,0,0,0,495.37,520l9,9a7.62,7.62,0,0,0,10.78,0l18.46-18.47a7.62,7.62,0,0,0,0-10.78l-9-9a84.68,84.68,0,0,0,9.57-23.09h12.68A7.63,7.63,0,0,0,554.5,460V433.87A7.64,7.64,0,0,0,546.87,426.24ZM451.6,498.45a51.53,51.53,0,1,1,51.53-51.52A51.52,51.52,0,0,1,451.6,498.45Z" style="fill:#a796ff"/><path d="M327.75,597.19q-1.61-4.8-3.39-9.38Z" style="fill:#f4d37e"/><path d="M324.24,615.27l.07-27.58A216.44,216.44,0,0,0,305,549.51c-7.12,7.55-9.43,31-9.43,31,.67-24.2,3.26-31.44,3.51-39.36-10.47-13.65-26.44-21-39.07-29.17,5.06,28.77,4.68,36,4.68,36-1.67-17.23-7.31-29.15-10.16-39.38-32.16-18.94-48.81-14-48.81-14,.31,12.15,4.27,39.1,5.47,49.5,13.58,11.56,32.4,23,32.4,23C233.8,564,221,556.42,212,550.58c2.06,15,1.88,12.57,5.74,24.47,13.53,12.36,41,26.51,41,26.51-11.92-2.89-28.57-11.87-37.66-17.1a164.75,164.75,0,0,0,31.09,50.8,307.29,307.29,0,0,0,29.06,10.88c-6.87-.4-15.49-2.45-23.46-4.78,15,15.73,32.71,29.72,52.28,45.41l19.78,8L336,665.24c2.86-23.55-1.3-47.1-8.18-67.77Z" style="fill:#f4d37e"/><path d="M308.58,643.89c3.74,7,7.31,14.18,10.52,21.53a129.25,129.25,0,0,1,7.82,22.89l-.34.1A127.43,127.43,0,0,0,318.15,666c-3.4-7.2-7.16-14.18-11.08-21-7.82-13.75-16.25-27.07-24.72-40.36s-17.26-26.36-25.21-40.1c-4-6.86-7.87-13.79-11.54-20.88s-7.14-14.3-10.23-21.72l.31-.19c7.89,13.77,16.09,27.21,24.41,40.6s16.38,27,24.6,40.49S301,629.87,308.58,643.89Z" style="fill:#fef3f9"/><path d="M282.8,688.68c.23-29.16,2.12-41.44,0-51.07a161.86,161.86,0,0,0-52.69-25.46c14.9,32.7,11.22,55.8,11.22,55.8-.8-23.65-12.28-46.54-18.83-57.77C178,599.55,139,606.74,139,606.74c4.1,14.51,8.46,27.7,13.09,39.75,19.87,8.78,46,15.41,46,15.41-12.69-.07-30.37-4.35-43.06-7.95a273.45,273.45,0,0,0,23.05,45c20.07,9.76,57.45,16.4,57.45,16.4-15.23,1-38-3.48-50.54-6.34a189.29,189.29,0,0,0,53,49.36,371.19,371.19,0,0,0,38.29,2.11c-8.39,2.11-19.39,2.91-29.69,3.11,22.9,13.25,48.46,23.39,76.8,34.87l26.27,2.19-1.58-37.9c-7.27-56.84-28.87-93.63-55.59-117.29C286.22,657.22,282.8,688.68,282.8,688.68Z" style="fill:#a796ff"/><path d="M343.81,794.18a147.61,147.61,0,0,0-17-23.82C320.5,763,313.84,756,307,749.24c-13.61-13.59-27.83-26.43-42.09-39.22s-28.84-25.18-42.61-38.71c-6.89-6.75-13.69-13.61-20.28-20.75s-13-14.51-18.95-22.26l.31-.35c13.7,13.58,27.69,26.65,41.8,39.61s28,26.27,42,39.42,28,26.43,41.34,40.45c6.65,7,13.14,14.29,19.25,21.93a149.52,149.52,0,0,1,16.42,24.58Z" style="fill:#7862ec"/><path d="M856.44,689.35q3.36-2.94,6.48-6Z" style="fill:#a796ff"/><path d="M840.33,691.68,863,683.3a178.16,178.16,0,0,0,24.3-29.4c-8.79-4.21-28.86.86-28.86.86,20.11-6.8,27-6.65,33.59-8.85,7.39-13.76,7.66-30.64,9.73-44.68C880,614.67,873.9,616.54,873.9,616.54c13.53-6.8,21.27-15.61,28.63-21.35,3.85-35.23-6.27-49-6.27-49-9.86,4-30.55,15.89-38.65,20.17-4.55,16-7.08,36.69-7.08,36.69-1-9.88.58-23.88,2.08-34-11.6,6.49-9.64,5.57-18,12.74-5.23,16.17-6.86,45.64-6.86,45.64-2-11.79-.64-29.78.34-39.7a138.68,138.68,0,0,0-30.39,44c0,14.78,1.63,29.92,1.63,29.92-2.16-6.41-3.62-14.92-4.6-22.93-7.45,18.57-12.5,39-18.27,61.74l.6,20.56,26.53-3.36c20.37-4.59,38.19-15.61,52.66-28.24Z" style="fill:#a796ff"/><path d="M811.14,686.11c-4.41,5.57-9,11-13.85,16.22a102.29,102.29,0,0,1-15.95,14.17l-.2-.29a101.48,101.48,0,0,0,15.37-14.58c4.67-5.32,9-10.9,13.23-16.59,8.45-11.36,16.32-23.15,24.15-35s15.36-23.87,23.75-35.35c4.19-5.74,8.46-11.43,12.94-17s9.15-10.92,14.11-16l.27.23c-8.43,11.43-16.48,23-24.45,34.77s-16.19,23.25-24.3,34.91S819.9,674.91,811.14,686.11Z" style="fill:#7862ec"/><path d="M819.93,642.13q-1.54,2.82-3.27,5.64Zm-3.37,5.8c-7.47,12.09-17.67,23.78-31.08,31.48l-18,8.17-4.92-14.41c-.88-17.32-1.78-32.89-.57-47.65a91.21,91.21,0,0,0,8.27,15.2s-4.47-10.34-7.7-20.8a102.66,102.66,0,0,1,11.88-37.76c1.47,7.23,4.47,20.24,8.44,28.15,0,0-5.29-21.2-5.13-33.77,4.35-6.91,3.16-5.82,9.95-12.95,1.14,7.46,3.09,17.7,5.94,24.47,0,0-2.73-15.21-3-27.49,4.79-4.8,16.82-17.72,22.92-22.71,0,0,10.16,7.49,15.14,33.25-4,5.66-7.5,13.58-15.59,21.35,0,0,3.9-2.65,16.36-16.91,1.6,10.38,5.1,22.37,2.88,33.72-4.19,3-9.08,4.39-21.82,13.6,0,0,13.09-8,20.22-6.92A131.67,131.67,0,0,1,820,642.06l-14.2,10.88Zm-22.45-22.4c3.19-10,6.51-20,9.56-30s6.22-20,9.69-29.93l-.24-.1c-2.39,4.69-4.53,9.52-6.48,14.41s-3.74,9.84-5.45,14.82c-3.42,9.95-6.1,20.12-9.07,30.19s-5.94,20.13-9.43,30c-1.73,4.94-3.6,9.84-5.74,14.62a74.94,74.94,0,0,1-7.68,13.67l.21.16a76.71,76.71,0,0,0,8.18-13.5c2.31-4.74,4.35-9.6,6.25-14.5C787.66,645.54,790.9,635.53,794.11,625.53Z" style="fill:#fc8e53"/><path d="M834.08,748.13c19.28,6.25,27,10.21,33.87,10.65a131.4,131.4,0,0,0,29.1-33.54c-25.13,4.16-39.6-3.37-39.6-3.37,15.87,4.34,33.71.66,42.68-1.83a192.19,192.19,0,0,0,21.64-60.84c-10.56,0-20.33.46-29.39,1.36-10.43,12.82-20.9,30.72-20.9,30.72,3-9.35,9.93-21.49,15.27-30.1a184.84,184.84,0,0,0-35.19,7.62c-11.13,12.76-24.21,38.93-24.21,38.93,2.85-11.44,11.13-27.3,15.93-35.94a141.66,141.66,0,0,0-45,28.75C792.45,714,788,728.33,788,728.33c.55-6.62,2.57-14.9,4.83-22.53-14.1,14.11-26.75,30.84-40.94,49.34l-7.55,18.92,25.5,6.74c39.38,6.5,68.79-1.75,90.68-16.52C854.15,757.22,834.08,748.13,834.08,748.13Z" style="fill:#f4d37e"/><path d="M750,771.1a104.28,104.28,0,0,0,19.75-7.57c6.35-3.11,12.52-6.57,18.59-10.18,12.17-7.2,24-15,35.77-22.85s23.4-16,35.56-23.35c6.08-3.67,12.21-7.26,18.47-10.62s12.63-6.54,19.16-9.33l.15.3c-12.18,7.27-24.09,14.86-36,22.56s-23.91,15.14-35.88,22.74-24,15.1-36.41,22c-6.22,3.44-12.53,6.72-19,9.63a103.85,103.85,0,0,1-20.11,7Z" style="fill:#fdeab1"/><path d="M349.55,486.3H776.17a23.41,23.41,0,0,1,23.41,23.41V784.17a0,0,0,0,1,0,0H326.14a0,0,0,0,1,0,0V509.71A23.41,23.41,0,0,1,349.55,486.3Z" style="fill:#380f8f"/><rect x="348.62" y="508.11" width="428.5" height="250.34" style="fill:#8550fc"/><polygon points="886.45 857.63 239.28 857.63 326.14 784.17 799.59 784.17 886.45 857.63" style="fill:#a796ff"/><path d="M239.28,857.63H886.45a0,0,0,0,1,0,0v4.82a23.11,23.11,0,0,1-23.11,23.11H262.39a23.11,23.11,0,0,1-23.11-23.11v-4.82A0,0,0,0,1,239.28,857.63Z" style="fill:#380f8f"/><path d="M387.79,804h-26.2a.9.9,0,0,1-.62-1.56l8.18-7.74a.89.89,0,0,1,.62-.24h25a.9.9,0,0,1,.67,1.5l-7,7.74A.89.89,0,0,1,387.79,804Z" style="fill:#fef3f9"/><path d="M429.29,804H402.83a.9.9,0,0,1-.7-1.48l6.5-7.74a.87.87,0,0,1,.69-.32h25.29a.9.9,0,0,1,.74,1.41L430,803.65A.92.92,0,0,1,429.29,804Z" style="fill:#fef3f9"/><path d="M470.76,804H444.08a.91.91,0,0,1-.77-1.38l4.81-7.74a.9.9,0,0,1,.77-.42h25.5a.9.9,0,0,1,.82,1.28l-3.64,7.74A.89.89,0,0,1,470.76,804Z" style="fill:#fef3f9"/><path d="M512.19,804H485.36a.9.9,0,0,1-.83-1.24l3.11-7.74a.9.9,0,0,1,.84-.56h25.66a.89.89,0,0,1,.87,1.12l-1.94,7.74A.9.9,0,0,1,512.19,804Z" style="fill:#fef3f9"/><path d="M553.59,804H526.68a.9.9,0,0,1-.89-1.06l1.43-7.75a.9.9,0,0,1,.89-.73h25.74a.9.9,0,0,1,.9.93l-.26,7.74A.9.9,0,0,1,553.59,804Z" style="fill:#fef3f9"/><path d="M595,804H568a.91.91,0,0,1-.91-.87l-.25-7.74a.9.9,0,0,1,.9-.93h25.74a.9.9,0,0,1,.89.73l1.43,7.75A.9.9,0,0,1,595,804Z" style="fill:#fef3f9"/><path d="M636.27,804H609.43a.9.9,0,0,1-.87-.68l-1.94-7.74a.89.89,0,0,1,.87-1.12h25.66a.9.9,0,0,1,.84.56l3.11,7.74A.9.9,0,0,1,636.27,804Z" style="fill:#fef3f9"/><path d="M677.55,804H650.87a.88.88,0,0,1-.81-.52l-3.64-7.74a.9.9,0,0,1,.82-1.28h25.5a.9.9,0,0,1,.77.42l4.8,7.74A.9.9,0,0,1,677.55,804Z" style="fill:#fef3f9"/><path d="M718.8,804H692.34a.91.91,0,0,1-.74-.39l-5.32-7.74a.9.9,0,0,1,.74-1.41h25.29a.87.87,0,0,1,.69.32l6.5,7.74A.9.9,0,0,1,718.8,804Z" style="fill:#fef3f9"/><path d="M760,804H733.83a.89.89,0,0,1-.66-.3l-7-7.74a.9.9,0,0,1,.67-1.5h25a.89.89,0,0,1,.62.24l8.18,7.74A.9.9,0,0,1,760,804Z" style="fill:#fef3f9"/><path d="M374.7,818.5H346.31a.9.9,0,0,1-.62-1.55l9.72-9.2a.9.9,0,0,1,.62-.25h27a.91.91,0,0,1,.67,1.51l-8.33,9.2A.88.88,0,0,1,374.7,818.5Z" style="fill:#fef3f9"/><path d="M419.35,818.5H390.7A.9.9,0,0,1,390,817l7.71-9.2a.92.92,0,0,1,.69-.32h27.26a.9.9,0,0,1,.75,1.41l-6.33,9.2A.88.88,0,0,1,419.35,818.5Z" style="fill:#fef3f9"/><path d="M464,818.5H435.1a.9.9,0,0,1-.76-1.37l5.71-9.2a.89.89,0,0,1,.77-.43h27.47a.9.9,0,0,1,.81,1.28L464.79,818A.91.91,0,0,1,464,818.5Z" style="fill:#fef3f9"/><path d="M359.46,835.34H328.52a.89.89,0,0,1-.62-1.55l11.65-11a.89.89,0,0,1,.62-.25h29.27a.91.91,0,0,1,.67,1.51l-10,11A.88.88,0,0,1,359.46,835.34Z" style="fill:#fef3f9"/><path d="M407.78,835.34h-31.2a.9.9,0,0,1-.69-1.48l9.24-11a.9.9,0,0,1,.69-.33h29.53a.91.91,0,0,1,.75,1.42l-7.58,11A.89.89,0,0,1,407.78,835.34Z" style="fill:#fef3f9"/><path d="M456.07,835.34H424.65a.9.9,0,0,1-.76-1.37l6.84-11a.91.91,0,0,1,.77-.43h29.74a.91.91,0,0,1,.82,1.29l-5.17,11A.91.91,0,0,1,456.07,835.34Z" style="fill:#fef3f9"/><path d="M508.56,818.5h-29a.9.9,0,0,1-.84-1.23l3.71-9.21a.9.9,0,0,1,.83-.56h27.63a.9.9,0,0,1,.88,1.12l-2.32,9.2A.9.9,0,0,1,508.56,818.5Z" style="fill:#fef3f9"/><path d="M648.87,835.34H472.76a.9.9,0,0,1-.84-1.23l4.44-11a.91.91,0,0,1,.84-.57H644.43a.91.91,0,0,1,.84.57l4.44,11A.9.9,0,0,1,648.87,835.34Z" style="fill:#fef3f9"/><path d="M553.11,818.5H524a.9.9,0,0,1-.89-1.06l1.7-9.2a.9.9,0,0,1,.89-.74h27.71a.9.9,0,0,1,.9.93l-.31,9.2A.89.89,0,0,1,553.11,818.5Z" style="fill:#fef3f9"/><path d="M597.62,818.5h-29.1a.89.89,0,0,1-.9-.87l-.31-9.2a.9.9,0,0,1,.9-.93h27.71a.9.9,0,0,1,.89.74l1.7,9.2A.9.9,0,0,1,597.62,818.5Z" style="fill:#fef3f9"/><path d="M642.09,818.5h-29a.92.92,0,0,1-.88-.68l-2.31-9.2a.9.9,0,0,1,.88-1.12h27.63a.9.9,0,0,1,.83.56l3.71,9.21A.9.9,0,0,1,642.09,818.5Z" style="fill:#fef3f9"/><path d="M686.53,818.5H657.66a.91.91,0,0,1-.82-.51l-4.31-9.21a.89.89,0,0,1,.81-1.28h27.47a.89.89,0,0,1,.77.43l5.71,9.2A.9.9,0,0,1,686.53,818.5Z" style="fill:#fef3f9"/><path d="M730.93,818.5H702.28a.88.88,0,0,1-.74-.39l-6.33-9.2a.9.9,0,0,1,.75-1.41h27.26a.92.92,0,0,1,.69.32l7.71,9.2A.9.9,0,0,1,730.93,818.5Z" style="fill:#fef3f9"/><path d="M739,828.16H708.91a.92.92,0,0,1-.74-.39l-2.64-3.84a.91.91,0,0,1,.75-1.42h29.53a.9.9,0,0,1,.69.33l3.22,3.84A.9.9,0,0,1,739,828.16Z" style="fill:#fef3f9"/><path d="M745.05,835.34h-31.2a.89.89,0,0,1-.74-.39l-3-4.29a.9.9,0,0,1,.74-1.41h30.55a.94.94,0,0,1,.7.32l3.59,4.29A.9.9,0,0,1,745.05,835.34Z" style="fill:#fef3f9"/><path d="M793.11,835.34H762.17a.88.88,0,0,1-.67-.29l-3.88-4.29a.9.9,0,0,1,.66-1.51h30.3a.9.9,0,0,1,.62.25l4.53,4.29A.9.9,0,0,1,793.11,835.34Z" style="fill:#fef3f9"/><path d="M697,835.34H665.56a.91.91,0,0,1-.82-.51l-2-4.3a.9.9,0,0,1,.82-1.28h30.76a.92.92,0,0,1,.77.42l2.66,4.3A.9.9,0,0,1,697,835.34Z" style="fill:#fef3f9"/><path d="M775.32,818.5H746.93a.88.88,0,0,1-.67-.29l-8.33-9.2a.9.9,0,0,1,.67-1.51h27a.9.9,0,0,1,.62.25l9.72,9.2A.9.9,0,0,1,775.32,818.5Z" style="fill:#fef3f9"/><polygon points="0 131.13 93.82 201.55 66.89 234.88 0 131.13" style="fill:#7b0f8f"/><polygon points="0 131.13 72.35 202.67 66.89 234.88 0 131.13" style="fill:#de50fc"/><polygon points="0 131.13 129.69 193.01 93.82 201.55 0 131.13" style="fill:#d396ff"/><polygon points="0 131.13 72.35 202.67 28.71 209.75 0 131.13" style="fill:#d396ff"/><path d="M410.21,418.9a1.56,1.56,0,0,1-.53-.2c-2.9-1.63-5.78-3.42-8.56-5.32a1.83,1.83,0,1,1,2.06-3c2.7,1.84,5.49,3.57,8.3,5.16a1.83,1.83,0,0,1-1.27,3.38Zm-19.3-13.6a1.8,1.8,0,0,1-.82-.4,137.1,137.1,0,0,1-10-9.61,1.83,1.83,0,1,1,2.66-2.51,131.68,131.68,0,0,0,9.78,9.34,1.83,1.83,0,0,1,.19,2.58A1.82,1.82,0,0,1,390.91,405.3Zm-18.85-19.88a1.84,1.84,0,0,1-1.07-.67c-2.79-3.56-5.5-7.36-8.07-11.28a1.83,1.83,0,0,1,3.06-2c2.51,3.84,5.17,7.56,7.89,11a1.84,1.84,0,0,1-.31,2.57A1.86,1.86,0,0,1,372.06,385.42ZM357,362.5a1.82,1.82,0,0,1-1.23-.91c-2.18-3.95-4.29-8.1-6.27-12.35a1.83,1.83,0,1,1,3.32-1.54c1.94,4.17,4,8.25,6.15,12.12a1.83,1.83,0,0,1-2,2.68ZM213.39,311.93h0c-4.52-1-9-2.13-13.41-3.31a1.83,1.83,0,1,1,1-3.53c4.32,1.17,8.78,2.27,13.25,3.27a1.83,1.83,0,0,1-.77,3.58Zm13.45,2.72a1.83,1.83,0,0,1,.7-3.59c4.42.8,9,1.53,13.48,2.17a1.83,1.83,0,1,1-.51,3.62c-4.58-.64-9.16-1.38-13.62-2.19Zm118.56,23a1.85,1.85,0,0,1-1.33-1.13c-1.66-4.23-3.23-8.61-4.67-13a1.83,1.83,0,0,1,3.48-1.14c1.42,4.34,3,8.65,4.6,12.81a1.85,1.85,0,0,1-1,2.38A2,2,0,0,1,345.4,337.65ZM186.9,304.73l-.2-.05c-4.43-1.44-8.82-3-13-4.6a1.83,1.83,0,0,1,1.31-3.42c4.15,1.6,8.48,3.12,12.85,4.54a1.83,1.83,0,0,1-.93,3.53ZM254,318.5a1.83,1.83,0,0,1,.56-3.62c1.78.19,3.56.36,5.32.51,2.74.24,5.52.43,8.24.55a1.83,1.83,0,1,1-.16,3.65c-2.78-.12-5.6-.31-8.41-.55-1.77-.16-3.57-.33-5.37-.52Zm27.39,1.17a1.83,1.83,0,0,1,.32-3.62c4.52-.13,9.08-.43,13.55-.89a1.83,1.83,0,1,1,.38,3.64c-4.56.47-9.21.78-13.83.91A2,2,0,0,1,281.41,319.67ZM161.29,294.89a1.71,1.71,0,0,1-.38-.13c-4.27-1.93-8.45-4-12.42-6.1a1.83,1.83,0,1,1,1.73-3.23c3.9,2.08,8,4.1,12.2,6a1.83,1.83,0,0,1-1.13,3.46Zm-24.15-13a1.77,1.77,0,0,1-.61-.24c-4-2.51-7.79-5.17-11.4-7.9a1.83,1.83,0,0,1,2.21-2.92c3.53,2.68,7.28,5.27,11.15,7.73a1.83,1.83,0,0,1-1.35,3.33Zm171.54,34.9a1.8,1.8,0,0,1-1.43-1.46,1.83,1.83,0,0,1,1.47-2.13c4.45-.81,8.91-1.81,13.24-3a1.83,1.83,0,0,1,1,3.54c-4.43,1.18-9,2.19-13.54,3A1.78,1.78,0,0,1,308.68,316.83Zm28.2-5.25a1.83,1.83,0,0,1-1.4-1.33c0-.14-.08-.28-.11-.42a1.8,1.8,0,0,1-1.55-1.21,1.84,1.84,0,0,1,.7-2.12c-.82-3.28-1.55-6.54-2.18-9.72a1.83,1.83,0,1,1,3.59-.72c.59,3,1.27,6,2,9.13,3.23-1.21,6.44-2.53,9.58-3.93A1.83,1.83,0,1,1,349,304.6c-3.33,1.49-6.74,2.88-10.16,4.16.05.18.1.37.14.55a1.83,1.83,0,0,1-2.13,2.27ZM115.34,265.35a1.87,1.87,0,0,1-.87-.45,133.72,133.72,0,0,1-9.75-9.91,1.83,1.83,0,0,1,2.75-2.42,132.1,132.1,0,0,0,9.47,9.64,1.81,1.81,0,0,1,.11,2.58A1.84,1.84,0,0,1,115.34,265.35ZM97.22,244.82a1.85,1.85,0,0,1-1.12-.74,118.29,118.29,0,0,1-7.33-11.86A1.83,1.83,0,1,1,92,230.49,113.64,113.64,0,0,0,99.09,242a1.84,1.84,0,0,1-.44,2.55A1.9,1.9,0,0,1,97.22,244.82Zm263,53.81a1.86,1.86,0,0,1-1.24-.92,1.84,1.84,0,0,1,.72-2.48c3.95-2.16,7.86-4.52,11.62-7a1.83,1.83,0,0,1,2,3.06c-3.84,2.53-7.84,4.94-11.87,7.15A1.84,1.84,0,0,1,360.21,298.63Zm-28.66-14a1.82,1.82,0,0,1-1.44-1.56c-.59-4.67-1-9.32-1.17-13.83a1.83,1.83,0,0,1,3.66-.15c.18,4.41.57,9,1.14,13.52a1.83,1.83,0,0,1-1.59,2A1.72,1.72,0,0,1,331.55,284.67Zm51.53-1.13a1.83,1.83,0,0,1-.76-3.23c3.53-2.77,7-5.73,10.34-8.79a1.81,1.81,0,0,1,2.58.1,1.83,1.83,0,0,1-.11,2.59c-3.39,3.13-6.94,6.15-10.55,9A1.86,1.86,0,0,1,383.08,283.54Zm-52.62-26.26a1.82,1.82,0,0,1-1.45-1.89,132.08,132.08,0,0,1,1.46-13.83,1.83,1.83,0,0,1,2.1-1.51,1.76,1.76,0,0,1,1.51,2.09,127.24,127.24,0,0,0-1.42,13.45,1.82,1.82,0,0,1-1.92,1.73ZM403.23,265a1.7,1.7,0,0,1-.87-.45,1.82,1.82,0,0,1-.11-2.58c3.05-3.3,6-6.77,8.82-10.32a1.83,1.83,0,1,1,2.87,2.26c-2.86,3.63-5.89,7.18-9,10.54A1.81,1.81,0,0,1,403.23,265Zm-68.35-34.7-.14,0a1.84,1.84,0,0,1-1.26-2.26l.16-.55a95.89,95.89,0,0,1,4.65-12.58,1.83,1.83,0,0,1,3.34,1.49,92.28,92.28,0,0,0-4.48,12.12L337,229A1.82,1.82,0,0,1,334.88,230.26Zm85.34,13.19a2,2,0,0,1-.65-.27,1.83,1.83,0,0,1-.5-2.54c2.51-3.73,4.92-7.61,7.16-11.54a1.83,1.83,0,1,1,3.18,1.81c-2.29,4-4.74,8-7.3,11.77A1.83,1.83,0,0,1,420.22,243.45ZM346,205.26a1.91,1.91,0,0,1-.6-.23,1.84,1.84,0,0,1-.59-2.52A103.84,103.84,0,0,1,353,191.15a1.83,1.83,0,0,1,2.83,2.32,102.6,102.6,0,0,0-7.84,11A1.82,1.82,0,0,1,346,205.26Zm87.8,14.38a1.66,1.66,0,0,1-.43-.14,1.83,1.83,0,0,1-.86-2.44l1-2.05a51.34,51.34,0,0,0,3.55-10.43,1.84,1.84,0,0,1,2.16-1.4h0a1.83,1.83,0,0,1,1.38,2.19,54.32,54.32,0,0,1-3.8,11.17l-1,2.09A1.82,1.82,0,0,1,433.82,219.64Zm-70.38-35.49a1.78,1.78,0,0,1-1-.56,1.84,1.84,0,0,1,.13-2.59,84.7,84.7,0,0,1,11.1-8.54,1.83,1.83,0,0,1,2,3.08A79.8,79.8,0,0,0,365,183.71,1.81,1.81,0,0,1,363.44,184.15Zm76.07,9a1.83,1.83,0,0,1-1.45-1.65,30,30,0,0,0-3.59-12.32,1.82,1.82,0,0,1,.7-2.49,1.84,1.84,0,0,1,2.49.7,33.63,33.63,0,0,1,4,13.81,1.82,1.82,0,0,1-1.67,2A2.24,2.24,0,0,1,439.51,193.14Zm-53-23.59a1.83,1.83,0,0,1-.3-3.5,62,62,0,0,1,13.63-3.62,1.83,1.83,0,0,1,.52,3.62,58.33,58.33,0,0,0-12.82,3.41A1.75,1.75,0,0,1,386.49,169.55Zm39.76.78a2,2,0,0,1-.59-.24,32.12,32.12,0,0,0-12.17-4.25,1.83,1.83,0,0,1,.52-3.62A35.69,35.69,0,0,1,427.57,167a1.83,1.83,0,0,1-1.32,3.36Z" style="fill:#8550fc"/><rect x="719.77" y="160.98" width="159.62" height="132.42" rx="33.4" style="fill:#fc8e53"/><path d="M872.29,173.81l-43.43,43.43c-.74.75-1.53,1.46-2.32,2.13a41.39,41.39,0,0,1-53.93,0c-.79-.67-1.57-1.38-2.32-2.13l-3.07-3.07L726.9,173.81a34.15,34.15,0,0,1,5.2-5.34l40.43,40.39,3.07,3.07A24.34,24.34,0,0,0,778,214a33.85,33.85,0,0,0,43.27,0,29.84,29.84,0,0,0,2.36-2.13l3.07-3,40.39-40.43A33.52,33.52,0,0,1,872.29,173.81Z" style="fill:#fff"/><path d="M775.6,211.93A24.34,24.34,0,0,0,778,214l-5.35,5.35L721.48,270.5a33.5,33.5,0,0,1-1.64-8.94l47.38-47.39,5.31-5.31Z" style="fill:#fff"/><path d="M879.32,261.56a33.51,33.51,0,0,1-1.65,8.94l-51.13-51.13-5.31-5.31a29.84,29.84,0,0,0,2.36-2.13l3.07-3,5.27,5.27Z" style="fill:#fff"/><polygon points="636.16 455.42 571.01 510.42 499.89 459.55 516.86 413.15 520.36 395.44 527.26 360.37 598.62 358.42 601.7 370.91 610.01 404.62 636.16 455.42" style="fill:#f4d37e"/><path d="M601.7,370.91c-7.23,12.77-27.07,30-81.34,24.53l6.9-35.07,71.36-1.95Z" style="fill:#deb449"/><path d="M629.88,268.51c0,61.53-29.67,111.42-66.27,111.42S497.34,330,497.34,268.51s29.67-79.77,66.27-79.77S629.88,207,629.88,268.51Z" style="fill:#f4d37e"/><path d="M596.29,195s.24,35.55-31.84,38.69-61.27-16.2-68.67,25.79V221.79l35.55-20.91Z" style="fill:#deb449"/><path d="M636.81,215.84c6,21-10,114.83-19,133.84s-28.87,30-56.05,30.25c-34.68.3-46.42-16.82-53.42-26.82s-7.61-29.21-16.62-101.25,48.12-81.72,69.13-81.72,30.92-.32,34.93,13.69C625.73,182.17,630.8,194.83,636.81,215.84Zm-66.38,10.4c-19.14,8.91-53-9.07-66,5.51s-5,61.09-.74,80.6c1.68,7.73,23.66,1.65,37.18,8.78-18.6,17.55,0,32.51,20.46,32.51,19.42,0,37.84-6.19,25.46-29.93,9.51-10.32,29.93-.52,34.06-9.29,5.93-12.61,2.63-71.33,2.63-71.33-8.1-2.43-26.73-25.11-26.73-42.11A55.66,55.66,0,0,1,570.43,226.24Z" style="fill:#232323"/><path d="M540.86,264.48c0,5.24-2.9,9.49-6.48,9.49s-6.48-4.25-6.48-9.49,2.9-9.5,6.48-9.5S540.86,259.23,540.86,264.48Z" style="fill:#232323"/><path d="M596.29,264.48c0,5.24-2.9,9.49-6.48,9.49s-6.48-4.25-6.48-9.49,2.9-9.5,6.48-9.5S596.29,259.23,596.29,264.48Z" style="fill:#232323"/><path d="M543.69,330h38.15s-4.12,16.51-17.53,16.51S545.3,336.86,543.69,330Z" style="fill:#fff"/><path d="M562.77,274s-24.35,39,0,38.94Z" style="fill:#deb449"/><path d="M487.6,270.48a64,64,0,0,1-1-11.39c0-38.28,33.79-62.86,75.48-62.86s75.47,24.58,75.47,62.86a64,64,0,0,1-1,11.39h8.66c2.06-6.78,3.93-14,3.18-21.31-3.65-35.91-33.52-70.63-86.27-70.63-47.65,0-85.35,37.46-85.35,75.3,0,7.39.19,9.86,2.25,16.64Z" style="fill:#808285"/><path d="M491,312l-7.73.82c-8.85.93-16.81-5.14-17.79-13.57l-4.33-37.08c-1-8.43,5.39-16,14.23-17l7.74-.82a8.54,8.54,0,0,1,9.52,7.26l6,51.27A8.33,8.33,0,0,1,491,312Z" style="fill:#808285"/><path d="M634.58,312l7.74.82c8.84.93,16.81-5.14,17.79-13.57l4.33-37.08c1-8.43-5.39-16-14.23-17l-7.74-.82a8.54,8.54,0,0,0-9.52,7.26l-6,51.27A8.32,8.32,0,0,0,634.58,312Z" style="fill:#808285"/><path d="M581.84,175.37s-5.17,16.95-35,17S507.64,195,507.64,195,529.68,171.3,581.84,175.37Z" style="fill:#232323"/><path d="M675.8,559c-2,.67-3.87,1.29-5.46,1.87.95,8.73,2,29.14,3.1,48.18l.12,2.18c.31,5.28.63,10.42,1,15.13.58,8.62,1.16,15.85,1.76,19.93,1.77,10,3.18,20.45,4.32,30.19,2.86,24.61,3.9,45.08,3.9,45.08-4.76-.13-234.87,0-234.87,0l1.19-39.75.79-26.21.75-24.85,2-68.74a77.58,77.58,0,0,0-10-2.17c-16.77-2.9-46.4-6.06-57.73-7.22l-4.58-.48s25.46-106.27,41.11-123.1c28.47-17.91,58-24.9,97-33.65,0,0-2.43,14.73,4.81,27.41,17.48,30.49,75.27,25.07,83-9.22,1.85-8.21-.28-18.17-.28-18.17s80,16.6,95.48,35.11c12.13,20.49,34.42,111.09,34.42,111.09s-2.19.56-5.82,1.53C719.75,546.33,691.71,553.81,675.8,559Z" style="fill:#380f8f"/><polygon points="654.14 496.06 670.33 560.89 673.55 611.23 654.14 558.49 654.14 496.06" style="fill:#1a0845"/><polygon points="465.19 597.48 456.52 634.54 451.6 655.61 452.36 630.76 454.4 562.02 465.19 491.17 465.19 597.48" style="fill:#1a0845"/><path d="M415.54,765.49s-81.65,4.38-100.36,12.75S318,829,331.09,830.78c9.57,1.31,90.54-6.87,102-18.68Z" style="fill:#232323"/><path d="M415.54,765.49s-35.43,7.54-42,16.14-7.74,32-2.84,33,11.08,8.66,62.41-2.51Z" style="fill:#f4d37e"/><path d="M414.62,765.07l18.11,47.83,336.34-61.59c32.81-7.24,89.62-37.3,82.3-63.1-8.89-31.32-34.51-51.32-66.86-42.24Z" style="fill:#0b53ff"/><path d="M456.53,634.54l-4.18-3.78-21.58-19.5,13.63-51.41c-16.77-2.9-46.4-6.06-57.73-7.22l-12.88,65.74a20.28,20.28,0,0,0,9.14,21.07l67.88,42.38,23,14.36,18-29.78Z" style="fill:#f4d37e"/><path d="M747.74,617.32l-15.91-74.17c-12.08,3.18-40.12,10.66-56,15.86l14.86,52.23-16.15,15.13-43.88,41.11,18.51,29.45,31.45-20.44L739,638.56A20.28,20.28,0,0,0,747.74,617.32Z" style="fill:#f4d37e"/><path d="M720.69,764.42l-17.46,48.07-348-61.2c-32.9-6.79-70.9-32.94-71.48-52.32-.81-26.82,38-61.07,70.48-52.43Z" style="fill:#2175fb"/><path d="M720.69,764.42s85.95,5.69,105,13.3-6.78,47-19.77,49.35c-9.51,1.69-90.74-3.23-102.66-14.58Z" style="fill:#232323"/><path d="M720.69,764.42s33.9,6.91,40.84,15.24,9,31.66,4.17,32.83-10.73,9.1-62.47,0Z" style="fill:#f4d37e"/><path d="M691.69,558.52,673.73,700H446l-2.67-21.07L428.06,558.52A15.94,15.94,0,0,1,444,542.57H675.75A15.94,15.94,0,0,1,691.69,558.52Z" style="fill:#e6e7e8"/><rect x="441.53" y="699.97" width="236.68" height="13.37" rx="4.51" style="fill:#d1d3d4"/><path d="M559.87,603.2a18.78,18.78,0,0,0-4.06.46,15.81,15.81,0,0,1,.1,1.69A14.64,14.64,0,0,1,541.36,620c-.06.6-.09,1.21-.09,1.82a18.61,18.61,0,1,0,18.6-18.61Z" style="fill:#d1d3d4"/><path d="M228.7,343.7c-11.9,0-16.61,4.92-16.61,15.5,0,1-1.85,1-1.85,0,0-10.58-3.77-15.5-16.61-15.5-1,0-1-1.85,0-1.85,13.24,0,16.61-6.14,16.61-15.49,0-1,1.85-1,1.85,0,0,11.14,4.51,15.49,16.61,15.49C229.66,341.85,229.66,343.7,228.7,343.7Z" style="fill:#fbf3fe"/><path d="M317.92,262.63c-17.76,0-24.79,7.34-24.79,23.13,0,1.46-2.76,1.46-2.76,0,0-15.79-5.62-23.13-24.79-23.13-1.43,0-1.43-2.77,0-2.77,19.76,0,24.79-9.15,24.79-23.1,0-1.46,2.76-1.46,2.76,0,0,16.62,6.73,23.1,24.79,23.1C319.36,259.86,319.36,262.63,317.92,262.63Z" style="fill:#fbf3fe"/><path d="M301.38,433.86c-13.59,0-19,5.62-19,17.7,0,1.11-2.12,1.11-2.12,0,0-12.08-4.3-17.7-19-17.7-1.09,0-1.09-2.12,0-2.12,15.13,0,19-7,19-17.68,0-1.11,2.12-1.11,2.12,0,0,12.72,5.14,17.68,19,17.68C302.48,431.74,302.48,433.86,301.38,433.86Z" style="fill:#fbf3fe"/></svg>