<svg id="Layer_1" data-name="Layer 1" xmlns="http://www.w3.org/2000/svg" viewBox="0 0 1000 1000"><path d="M393.27,86.68q2.82-1.4,5.73-2.63c59-25.22,122.17,14.16,182.76,13.64C637.69,97.21,691,68.55,746.88,69.57c16.64.3,33.84,3.51,47.47,13.41,14.82,10.75,23.77,28.05,36.3,41.57,29.08,31.4,78.49,44.14,93.22,84.89,11.62,32.12-4,67.06-16.32,98.9-21.11,54.51-33.07,115.92-15.87,171.89,12.32,40.07,38.93,75.28,44.58,116.92,5,36.58-7,74.05-24.26,106-22.93,42.45-22.75,91-34,136.85-7.34,30-22.27,60.29-49.25,75.29-24.24,13.48-52.7,12.05-79.48,13.53-27.68,1.54-54.19,2.92-82-.3-46.89-5.45-93-16.79-140.14-20.11-86-6-171.49,14.85-257.58,19.3-47.49,2.45-97.86-1-137.59-28-33.89-23.08-56.4-61.76-65-102.83S63,712.55,75.23,672.49c14.92-48.77,41.44-96.58,35.8-147.41-3.54-31.87-19.5-60.64-28.6-91.3-12.5-42.08-11.51-89.2,7.09-128.8a140.05,140.05,0,0,1,50.11-57.91c24.87-16.06,52.83-12.58,80-22.87C290,197.59,327.12,119.17,393.27,86.68Z" style="fill:#d4ccff"/><path d="M842.4,457h-17a113.83,113.83,0,0,0-12.84-31l12-12a10.24,10.24,0,0,0,0-14.47l-24.8-24.8a10.24,10.24,0,0,0-14.47,0l-12,12a113.54,113.54,0,0,0-31-12.85v-17A10.24,10.24,0,0,0,732,346.66H697a10.24,10.24,0,0,0-10.23,10.24v17a113.54,113.54,0,0,0-31,12.85l-12-12a10.24,10.24,0,0,0-14.47,0l-24.8,24.8a10.24,10.24,0,0,0,0,14.47l12,12a113.83,113.83,0,0,0-12.84,31h-17a10.23,10.23,0,0,0-10.23,10.23v35.07a10.23,10.23,0,0,0,10.23,10.23h17a113.77,113.77,0,0,0,12.84,31l-12,12.05a10.24,10.24,0,0,0,0,14.47l24.8,24.79a10.22,10.22,0,0,0,14.47,0l12-12a113.52,113.52,0,0,0,31,12.84v17A10.23,10.23,0,0,0,697,622.92H732a10.23,10.23,0,0,0,10.23-10.23v-17a113.52,113.52,0,0,0,31-12.84l12,12a10.22,10.22,0,0,0,14.47,0l24.8-24.79a10.24,10.24,0,0,0,0-14.47l-12-12.05a113.77,113.77,0,0,0,12.84-31h17a10.23,10.23,0,0,0,10.23-10.23V467.26A10.23,10.23,0,0,0,842.4,457ZM714.5,554a69.17,69.17,0,1,1,69.17-69.17A69.17,69.17,0,0,1,714.5,554Z" style="fill:#8550fc"/><path d="M484.26,426.24H471.58A84.94,84.94,0,0,0,462,403.15l9-9a7.62,7.62,0,0,0,0-10.78l-18.47-18.47a7.63,7.63,0,0,0-10.78,0l-9,9a84.37,84.37,0,0,0-23.09-9.57V351.65a7.62,7.62,0,0,0-7.62-7.62H375.93a7.62,7.62,0,0,0-7.62,7.62v12.69a84.66,84.66,0,0,0-23.09,9.56l-9-9a7.63,7.63,0,0,0-10.78,0L307,383.4a7.62,7.62,0,0,0,0,10.78l9,9a84.94,84.94,0,0,0-9.57,23.09H293.72a7.64,7.64,0,0,0-7.63,7.63V460a7.63,7.63,0,0,0,7.63,7.62H306.4A84.68,84.68,0,0,0,316,490.7l-9,9a7.62,7.62,0,0,0,0,10.78l18.47,18.47a7.62,7.62,0,0,0,10.78,0l9-9a84.68,84.68,0,0,0,23.09,9.57V542.2a7.62,7.62,0,0,0,7.62,7.62h26.12a7.62,7.62,0,0,0,7.62-7.62V529.52A84.68,84.68,0,0,0,432.76,520l9,9a7.62,7.62,0,0,0,10.78,0L471,510.45a7.62,7.62,0,0,0,0-10.78l-9-9a84.68,84.68,0,0,0,9.57-23.09h12.68a7.63,7.63,0,0,0,7.63-7.62V433.87A7.64,7.64,0,0,0,484.26,426.24ZM389,498.45a51.53,51.53,0,1,1,51.53-51.52A51.53,51.53,0,0,1,389,498.45Z" style="fill:#a796ff"/><path d="M265.14,597.19q-1.61-4.8-3.39-9.38Z" style="fill:#f4d37e"/><path d="M261.63,615.27l.07-27.58a217.12,217.12,0,0,0-19.35-38.18c-7.13,7.55-9.43,31-9.43,31,.67-24.2,3.26-31.44,3.51-39.36C226,527.48,210,520.09,197.36,512c5.06,28.77,4.67,36,4.67,36-1.66-17.23-7.3-29.15-10.15-39.38-32.16-18.94-48.81-14-48.81-14,.31,12.15,4.27,39.1,5.47,49.5,13.58,11.56,32.4,23,32.4,23-9.75-3.13-22.52-10.69-31.58-16.53,2.06,15,1.88,12.57,5.74,24.47,13.53,12.36,41,26.51,41,26.51-11.92-2.89-28.57-11.87-37.66-17.1a164.75,164.75,0,0,0,31.09,50.8,307.29,307.29,0,0,0,29.06,10.88c-6.87-.4-15.49-2.45-23.46-4.78,15,15.73,32.71,29.72,52.28,45.41l19.78,8,6.22-29.56c2.86-23.55-1.3-47.1-8.18-67.77Z" style="fill:#f4d37e"/><path d="M246,643.89c3.73,7,7.31,14.18,10.52,21.53a129.25,129.25,0,0,1,7.82,22.89l-.35.1A126.62,126.62,0,0,0,255.54,666c-3.4-7.2-7.16-14.18-11.09-21-7.81-13.75-16.24-27.07-24.71-40.36s-17.26-26.36-25.21-40.1c-4-6.86-7.87-13.79-11.54-20.88s-7.14-14.3-10.23-21.72l.31-.19c7.88,13.77,16.09,27.21,24.41,40.6s16.38,27,24.6,40.49S238.42,629.87,246,643.89Z" style="fill:#fef3f9"/><path d="M220.18,688.68c.24-29.16,2.13-41.44,0-51.07a162,162,0,0,0-52.69-25.46c14.9,32.7,11.21,55.8,11.21,55.8-.79-23.65-12.27-46.54-18.83-57.77-44.5-10.63-83.47-3.44-83.47-3.44,4.1,14.51,8.46,27.7,13.08,39.75,19.88,8.78,46,15.41,46,15.41-12.69-.07-30.37-4.35-43.07-7.95a274.22,274.22,0,0,0,23.06,45c20.07,9.76,57.45,16.4,57.45,16.4-15.23,1-38-3.48-50.55-6.34a189.43,189.43,0,0,0,53,49.36,371.3,371.3,0,0,0,38.29,2.11c-8.38,2.11-19.38,2.91-29.68,3.11,22.9,13.25,48.46,23.39,76.8,34.87L287,800.65l-1.57-37.9c-7.27-56.84-28.88-93.63-55.59-117.29C223.61,657.22,220.18,688.68,220.18,688.68Z" style="fill:#a796ff"/><path d="M281.19,794.18a147.55,147.55,0,0,0-17-23.82c-6.29-7.38-13-14.35-19.78-21.12-13.61-13.59-27.83-26.43-42.09-39.22s-28.84-25.18-42.61-38.71c-6.89-6.75-13.7-13.61-20.28-20.75s-13-14.51-19-22.26l.32-.35c13.7,13.58,27.69,26.65,41.8,39.61s28,26.27,42,39.42,28,26.43,41.34,40.45c6.65,7,13.14,14.29,19.25,21.93a149.52,149.52,0,0,1,16.42,24.58Z" style="fill:#7862ec"/><path d="M793.83,689.35q3.36-2.94,6.47-6Z" style="fill:#a796ff"/><path d="M777.72,691.68l22.67-8.38a178,178,0,0,0,24.29-29.4c-8.78-4.21-28.85.86-28.85.86,20.11-6.8,27-6.65,33.58-8.85,7.4-13.76,7.66-30.64,9.74-44.68-21.77,13.44-27.87,15.31-27.87,15.31,13.54-6.8,21.27-15.61,28.64-21.35,3.85-35.23-6.27-49-6.27-49-9.87,4-30.55,15.89-38.65,20.17-4.55,16-7.09,36.69-7.09,36.69-1-9.88.59-23.88,2.09-34-11.6,6.49-9.64,5.57-18,12.74-5.23,16.17-6.86,45.64-6.86,45.64-2-11.79-.65-29.78.34-39.7a138.68,138.68,0,0,0-30.39,44c0,14.78,1.63,29.92,1.63,29.92-2.16-6.41-3.62-14.92-4.6-22.93-7.45,18.57-12.5,39-18.27,61.74l.6,20.56L741,717.76c20.37-4.59,38.19-15.61,52.66-28.24Z" style="fill:#a796ff"/><path d="M748.53,686.11c-4.42,5.57-9,11-13.85,16.22a102.29,102.29,0,0,1-15.95,14.17l-.21-.29a101,101,0,0,0,15.37-14.58c4.67-5.32,9-10.9,13.24-16.59,8.45-11.36,16.32-23.15,24.15-35S786.64,626.2,795,614.72c4.19-5.74,8.46-11.43,12.94-17s9.14-10.92,14.11-16l.27.23c-8.44,11.43-16.48,23-24.45,34.77S781.7,640,773.6,651.66,757.29,674.91,748.53,686.11Z" style="fill:#7862ec"/><path d="M757.32,642.13q-1.55,2.82-3.27,5.64Zm-3.37,5.8c-7.48,12.09-17.67,23.78-31.08,31.48l-18,8.17-4.92-14.41c-.88-17.32-1.78-32.89-.57-47.65a91.2,91.2,0,0,0,8.26,15.2s-4.46-10.34-7.69-20.8a102.66,102.66,0,0,1,11.88-37.76c1.47,7.23,4.47,20.24,8.43,28.15,0,0-5.28-21.2-5.12-33.77,4.35-6.91,3.16-5.82,10-12.95,1.14,7.46,3.09,17.7,5.94,24.47,0,0-2.73-15.21-3-27.49,4.79-4.8,16.82-17.72,22.92-22.71,0,0,10.16,7.49,15.13,33.25-3.95,5.66-7.49,13.58-15.58,21.35,0,0,3.9-2.65,16.36-16.91,1.6,10.38,5.1,22.37,2.88,33.72-4.19,3-9.09,4.39-21.82,13.6,0,0,13.09-8,20.22-6.92a131.67,131.67,0,0,1-10.76,26.11l-14.2,10.88Zm-22.45-22.4c3.18-10,6.51-20,9.56-30s6.22-20,9.69-29.93l-.24-.1c-2.4,4.69-4.53,9.52-6.48,14.41s-3.74,9.84-5.45,14.82c-3.42,9.95-6.1,20.12-9.07,30.19s-5.94,20.13-9.43,30c-1.74,4.94-3.6,9.84-5.74,14.62a75.54,75.54,0,0,1-7.68,13.67l.2.16a76.16,76.16,0,0,0,8.19-13.5c2.31-4.74,4.34-9.6,6.25-14.5C725.05,645.54,728.29,635.53,731.5,625.53Z" style="fill:#fc8e53"/><path d="M771.47,748.13c19.28,6.25,27,10.21,33.87,10.65a131.6,131.6,0,0,0,29.1-33.54c-25.13,4.16-39.6-3.37-39.6-3.37,15.87,4.34,33.71.66,42.68-1.83a192.19,192.19,0,0,0,21.64-60.84c-10.57,0-20.33.46-29.39,1.36-10.44,12.82-20.9,30.72-20.9,30.72,3-9.35,9.93-21.49,15.26-30.1a185.18,185.18,0,0,0-35.19,7.62c-11.12,12.76-24.2,38.93-24.2,38.93,2.85-11.44,11.12-27.3,15.93-35.94a141.55,141.55,0,0,0-45,28.75c-5.81,13.43-10.28,27.79-10.28,27.79.55-6.62,2.57-14.9,4.82-22.53-14.09,14.11-26.75,30.84-40.94,49.34l-7.54,18.92,25.5,6.74c39.38,6.5,68.79-1.75,90.68-16.52C791.54,757.22,771.47,748.13,771.47,748.13Z" style="fill:#f4d37e"/><path d="M687.35,771.1a104.28,104.28,0,0,0,19.75-7.57c6.35-3.11,12.52-6.57,18.59-10.18,12.17-7.2,24-15,35.77-22.85s23.39-16,35.56-23.35c6.07-3.67,12.21-7.26,18.47-10.62s12.62-6.54,19.16-9.33l.15.3c-12.18,7.27-24.09,14.86-36,22.56S774.93,725.2,763,732.8s-24,15.1-36.41,22c-6.22,3.44-12.53,6.72-19,9.63a104.08,104.08,0,0,1-20.11,7Z" style="fill:#fdeab1"/><path d="M286.94,486.3H713.56A23.41,23.41,0,0,1,737,509.71V784.17a0,0,0,0,1,0,0H263.53a0,0,0,0,1,0,0V509.71A23.41,23.41,0,0,1,286.94,486.3Z" style="fill:#380f8f"/><rect x="286" y="508.11" width="428.5" height="250.34" style="fill:#8550fc"/><polygon points="823.84 857.63 176.67 857.63 263.53 784.17 736.97 784.17 823.84 857.63" style="fill:#a796ff"/><path d="M176.67,857.63H823.84a0,0,0,0,1,0,0v4.82a23.11,23.11,0,0,1-23.11,23.11H199.78a23.11,23.11,0,0,1-23.11-23.11v-4.82A0,0,0,0,1,176.67,857.63Z" style="fill:#380f8f"/><path d="M325.18,804H299a.9.9,0,0,1-.62-1.56l8.18-7.74a.88.88,0,0,1,.62-.24h25a.9.9,0,0,1,.67,1.5l-7,7.74A.89.89,0,0,1,325.18,804Z" style="fill:#fef3f9"/><path d="M366.68,804H340.21a.9.9,0,0,1-.69-1.48l6.49-7.74a.9.9,0,0,1,.69-.32H372a.9.9,0,0,1,.74,1.41l-5.32,7.74A.92.92,0,0,1,366.68,804Z" style="fill:#fef3f9"/><path d="M408.15,804H381.47a.91.91,0,0,1-.77-1.38l4.81-7.74a.89.89,0,0,1,.76-.42h25.51a.89.89,0,0,1,.81,1.28L409,803.52A.9.9,0,0,1,408.15,804Z" style="fill:#fef3f9"/><path d="M449.58,804H422.75a.91.91,0,0,1-.84-1.24l3.12-7.74a.9.9,0,0,1,.84-.56h25.66a.9.9,0,0,1,.87,1.12l-1.94,7.74A.9.9,0,0,1,449.58,804Z" style="fill:#fef3f9"/><path d="M491,804H464.07a.9.9,0,0,1-.89-1.06l1.43-7.75a.9.9,0,0,1,.89-.73h25.74a.9.9,0,0,1,.9.93l-.26,7.74A.9.9,0,0,1,491,804Z" style="fill:#fef3f9"/><path d="M532.34,804H505.42a.91.91,0,0,1-.9-.87l-.25-7.74a.9.9,0,0,1,.9-.93h25.74a.91.91,0,0,1,.89.73l1.42,7.75A.89.89,0,0,1,532.34,804Z" style="fill:#fef3f9"/><path d="M573.65,804H546.82a.9.9,0,0,1-.87-.68l-2-7.74a.9.9,0,0,1,.88-1.12h25.66a.88.88,0,0,1,.83.56l3.12,7.74A.9.9,0,0,1,573.65,804Z" style="fill:#fef3f9"/><path d="M614.94,804H588.26a.9.9,0,0,1-.82-.52l-3.63-7.74a.9.9,0,0,1,.82-1.28h25.5a.92.92,0,0,1,.77.42l4.8,7.74A.9.9,0,0,1,614.94,804Z" style="fill:#fef3f9"/><path d="M656.19,804H629.73a.89.89,0,0,1-.74-.39l-5.32-7.74a.9.9,0,0,1,.74-1.41H649.7a.87.87,0,0,1,.69.32l6.49,7.74A.9.9,0,0,1,656.19,804Z" style="fill:#fef3f9"/><path d="M697.43,804H671.22a.93.93,0,0,1-.67-.3l-7-7.74a.89.89,0,0,1,.67-1.5h25a.89.89,0,0,1,.62.24l8.18,7.74A.91.91,0,0,1,697.43,804Z" style="fill:#fef3f9"/><path d="M312.09,818.5H283.7a.89.89,0,0,1-.62-1.55l9.72-9.2a.9.9,0,0,1,.62-.25h27a.91.91,0,0,1,.67,1.51l-8.33,9.2A.9.9,0,0,1,312.09,818.5Z" style="fill:#fef3f9"/><path d="M356.74,818.5H328.08a.9.9,0,0,1-.69-1.48l7.72-9.2a.9.9,0,0,1,.69-.32h27.26a.9.9,0,0,1,.74,1.41l-6.32,9.2A.89.89,0,0,1,356.74,818.5Z" style="fill:#fef3f9"/><path d="M401.36,818.5H372.49a.89.89,0,0,1-.76-1.37l5.71-9.2a.88.88,0,0,1,.76-.43h27.48a.9.9,0,0,1,.81,1.28L402.17,818A.89.89,0,0,1,401.36,818.5Z" style="fill:#fef3f9"/><path d="M296.85,835.34h-31a.9.9,0,0,1-.62-1.55l11.65-11a.9.9,0,0,1,.62-.25h29.28a.91.91,0,0,1,.67,1.51l-10,11A.9.9,0,0,1,296.85,835.34Z" style="fill:#fef3f9"/><path d="M345.17,835.34H314a.9.9,0,0,1-.69-1.48l9.25-11a.88.88,0,0,1,.69-.33h29.53a.91.91,0,0,1,.75,1.42l-7.58,11A.89.89,0,0,1,345.17,835.34Z" style="fill:#fef3f9"/><path d="M393.46,835.34H362a.89.89,0,0,1-.76-1.37l6.84-11a.89.89,0,0,1,.77-.43h29.74a.91.91,0,0,1,.82,1.29l-5.18,11A.89.89,0,0,1,393.46,835.34Z" style="fill:#fef3f9"/><path d="M446,818.5h-29a.9.9,0,0,1-.84-1.23l3.71-9.21a.88.88,0,0,1,.83-.56h27.63a.9.9,0,0,1,.88,1.12l-2.32,9.2A.9.9,0,0,1,446,818.5Z" style="fill:#fef3f9"/><path d="M586.26,835.34H410.15a.9.9,0,0,1-.84-1.23l4.44-11a.91.91,0,0,1,.84-.57H581.82a.89.89,0,0,1,.83.57l4.44,11A.89.89,0,0,1,586.26,835.34Z" style="fill:#fef3f9"/><path d="M490.5,818.5H461.4a.9.9,0,0,1-.89-1.06l1.7-9.2a.9.9,0,0,1,.89-.74h27.71a.9.9,0,0,1,.9.93l-.31,9.2A.89.89,0,0,1,490.5,818.5Z" style="fill:#fef3f9"/><path d="M535,818.5h-29.1a.91.91,0,0,1-.91-.87l-.3-9.2a.9.9,0,0,1,.9-.93h27.71a.91.91,0,0,1,.89.74l1.7,9.2A.9.9,0,0,1,535,818.5Z" style="fill:#fef3f9"/><path d="M579.48,818.5h-29a.9.9,0,0,1-.88-.68l-2.31-9.2a.9.9,0,0,1,.87-1.12h27.63a.9.9,0,0,1,.84.56l3.7,9.21A.89.89,0,0,1,579.48,818.5Z" style="fill:#fef3f9"/><path d="M623.91,818.5H595.05a.91.91,0,0,1-.82-.51l-4.32-9.21a.9.9,0,0,1,.82-1.28H618.2a.91.91,0,0,1,.77.43l5.71,9.2A.9.9,0,0,1,623.91,818.5Z" style="fill:#fef3f9"/><path d="M668.32,818.5H639.67a.87.87,0,0,1-.74-.39l-6.33-9.2a.9.9,0,0,1,.75-1.41H660.6a.94.94,0,0,1,.7.32L669,817A.9.9,0,0,1,668.32,818.5Z" style="fill:#fef3f9"/><path d="M676.42,828.16H646.3a.92.92,0,0,1-.74-.39l-2.64-3.84a.91.91,0,0,1,.74-1.42H673.2a.91.91,0,0,1,.69.33l3.22,3.84A.9.9,0,0,1,676.42,828.16Z" style="fill:#fef3f9"/><path d="M682.44,835.34h-31.2a.88.88,0,0,1-.74-.39l-3-4.29a.9.9,0,0,1,.74-1.41h30.55a.9.9,0,0,1,.69.32l3.6,4.29A.9.9,0,0,1,682.44,835.34Z" style="fill:#fef3f9"/><path d="M730.5,835.34H699.56a.88.88,0,0,1-.67-.29L695,830.76a.91.91,0,0,1,.67-1.51H726a.9.9,0,0,1,.62.25l4.53,4.29A.9.9,0,0,1,730.5,835.34Z" style="fill:#fef3f9"/><path d="M634.36,835.34H603a.91.91,0,0,1-.82-.51l-2-4.3a.9.9,0,0,1,.81-1.28H631.7a.92.92,0,0,1,.77.42l2.66,4.3A.9.9,0,0,1,634.36,835.34Z" style="fill:#fef3f9"/><path d="M712.71,818.5H684.32a.88.88,0,0,1-.67-.29l-8.33-9.2a.9.9,0,0,1,.67-1.51h27a.9.9,0,0,1,.62.25l9.72,9.2A.9.9,0,0,1,712.71,818.5Z" style="fill:#fef3f9"/><path d="M166.09,343.7c-11.91,0-16.61,4.92-16.61,15.5,0,1-1.85,1-1.85,0,0-10.58-3.77-15.5-16.62-15.5-1,0-1-1.85,0-1.85,13.25,0,16.62-6.14,16.62-15.49,0-1,1.85-1,1.85,0,0,11.14,4.51,15.49,16.61,15.49C167.05,341.85,167.05,343.7,166.09,343.7Z" style="fill:#fbf3fe"/><path d="M255.31,262.63c-17.77,0-24.79,7.34-24.79,23.13,0,1.46-2.76,1.46-2.76,0,0-15.79-5.62-23.13-24.79-23.13-1.43,0-1.43-2.77,0-2.77,19.76,0,24.79-9.15,24.79-23.1,0-1.46,2.76-1.46,2.76,0,0,16.62,6.73,23.1,24.79,23.1C256.74,259.86,256.74,262.63,255.31,262.63Z" style="fill:#fbf3fe"/><path d="M238.77,433.86c-13.59,0-19,5.62-19,17.7,0,1.11-2.11,1.11-2.11,0,0-12.08-4.3-17.7-19-17.7-1.09,0-1.09-2.12,0-2.12,15.12,0,19-7,19-17.68,0-1.11,2.11-1.11,2.11,0,0,12.72,5.15,17.68,19,17.68C239.87,431.74,239.87,433.86,238.77,433.86Z" style="fill:#fbf3fe"/><path d="M347.6,418.9a1.56,1.56,0,0,1-.53-.2c-2.9-1.63-5.78-3.42-8.56-5.32a1.83,1.83,0,1,1,2.06-3c2.7,1.84,5.49,3.57,8.29,5.16a1.82,1.82,0,0,1-1.26,3.38Zm-19.3-13.6a1.8,1.8,0,0,1-.82-.4,135.12,135.12,0,0,1-10.05-9.61,1.83,1.83,0,1,1,2.66-2.51,133.55,133.55,0,0,0,9.77,9.34,1.83,1.83,0,0,1-1.56,3.18Zm-18.85-19.88a1.84,1.84,0,0,1-1.07-.67c-2.79-3.56-5.5-7.36-8.08-11.28a1.83,1.83,0,0,1,3.07-2c2.51,3.84,5.17,7.56,7.89,11a1.84,1.84,0,0,1-.31,2.57A1.86,1.86,0,0,1,309.45,385.42ZM294.4,362.5a1.8,1.8,0,0,1-1.23-.91c-2.19-3.95-4.29-8.1-6.27-12.35a1.83,1.83,0,1,1,3.31-1.54c2,4.17,4,8.25,6.16,12.12a1.83,1.83,0,0,1-2,2.68Zm-11.61-24.85a1.85,1.85,0,0,1-1.33-1.13c-1.66-4.23-3.23-8.61-4.67-13a1.83,1.83,0,0,1,3.48-1.14c1.42,4.34,3,8.65,4.59,12.81a1.83,1.83,0,0,1-1,2.38A2,2,0,0,1,282.79,337.65ZM191.4,318.5a1.83,1.83,0,0,1,.56-3.62c1.79.19,3.56.36,5.32.51,2.75.24,5.53.43,8.25.55a1.83,1.83,0,1,1-.16,3.65c-2.78-.12-5.61-.31-8.41-.55-1.78-.16-3.57-.33-5.37-.52Zm27.4,1.17a1.83,1.83,0,0,1,.32-3.62c4.52-.13,9.08-.43,13.55-.89a1.83,1.83,0,1,1,.38,3.64c-4.56.47-9.21.78-13.83.91A2,2,0,0,1,218.8,319.67Zm27.27-2.84a1.83,1.83,0,0,1,0-3.59c4.45-.81,8.91-1.81,13.24-3a1.83,1.83,0,1,1,.94,3.54c-4.43,1.18-9,2.19-13.53,3A1.78,1.78,0,0,1,246.07,316.83Zm28.2-5.25a1.83,1.83,0,0,1-1.4-1.33c0-.14-.08-.28-.11-.42a1.8,1.8,0,0,1-1.55-1.21,1.83,1.83,0,0,1,.69-2.12c-.81-3.28-1.54-6.54-2.18-9.72a1.83,1.83,0,1,1,3.59-.72c.6,3,1.28,6,2,9.13,3.23-1.21,6.44-2.53,9.58-3.93a1.83,1.83,0,1,1,1.49,3.34c-3.33,1.49-6.74,2.88-10.16,4.16,0,.18.09.37.14.55a1.83,1.83,0,0,1-1.3,2.24A1.8,1.8,0,0,1,274.27,311.58Zm23.32-12.95a1.86,1.86,0,0,1-1.23-.92,1.83,1.83,0,0,1,.72-2.48c3.95-2.16,7.86-4.52,11.62-7a1.83,1.83,0,0,1,2,3.06c-3.85,2.53-7.84,4.94-11.88,7.15A1.83,1.83,0,0,1,297.59,298.63Zm-28.65-14a1.82,1.82,0,0,1-1.44-1.56c-.59-4.67-1-9.32-1.17-13.83a1.83,1.83,0,0,1,3.66-.15c.18,4.41.56,9,1.14,13.52a1.83,1.83,0,0,1-1.59,2A1.72,1.72,0,0,1,268.94,284.67Zm51.53-1.13a1.83,1.83,0,0,1-.76-3.23c3.53-2.77,7-5.73,10.33-8.79a1.83,1.83,0,1,1,2.48,2.69c-3.39,3.13-6.95,6.15-10.55,9A1.86,1.86,0,0,1,320.47,283.54Zm-52.62-26.26a1.82,1.82,0,0,1-1.45-1.89,129.45,129.45,0,0,1,1.46-13.83,1.82,1.82,0,0,1,2.09-1.51,1.76,1.76,0,0,1,1.52,2.09,127.24,127.24,0,0,0-1.42,13.45,1.82,1.82,0,0,1-1.92,1.73ZM340.61,265a1.78,1.78,0,0,1-.87-.45,1.83,1.83,0,0,1-.1-2.58c3.05-3.3,6-6.77,8.82-10.32a1.83,1.83,0,1,1,2.87,2.26c-2.86,3.63-5.89,7.18-9,10.54A1.82,1.82,0,0,1,340.61,265Zm-68.35-34.7-.13,0a1.84,1.84,0,0,1-1.26-2.26l.16-.55a95.82,95.82,0,0,1,4.64-12.58,1.83,1.83,0,0,1,3.34,1.49,93.66,93.66,0,0,0-4.47,12.12l-.15.51A1.84,1.84,0,0,1,272.26,230.26Zm85.35,13.19a2,2,0,0,1-.65-.27,1.83,1.83,0,0,1-.5-2.54c2.51-3.73,4.92-7.61,7.16-11.54a1.83,1.83,0,1,1,3.18,1.81c-2.29,4-4.74,8-7.3,11.77A1.83,1.83,0,0,1,357.61,243.45Zm-74.2-38.19a1.91,1.91,0,0,1-.6-.23,1.84,1.84,0,0,1-.59-2.52,103.84,103.84,0,0,1,8.12-11.36,1.83,1.83,0,0,1,2.83,2.32,101.21,101.21,0,0,0-7.84,11A1.82,1.82,0,0,1,283.41,205.26Zm87.79,14.38a1.73,1.73,0,0,1-.42-.14,1.83,1.83,0,0,1-.86-2.44l1-2.05a51.34,51.34,0,0,0,3.55-10.43,1.83,1.83,0,0,1,2.15-1.4h0a1.83,1.83,0,0,1,1.38,2.19,54.92,54.92,0,0,1-3.8,11.17l-1,2.09A1.83,1.83,0,0,1,371.2,219.64Zm-70.38-35.49a1.78,1.78,0,0,1-1-.56A1.83,1.83,0,0,1,300,181a84,84,0,0,1,11.1-8.54,1.84,1.84,0,0,1,2.53.56,1.82,1.82,0,0,1-.56,2.52,80.36,80.36,0,0,0-10.61,8.17A1.82,1.82,0,0,1,300.82,184.15Zm76.08,9a1.82,1.82,0,0,1-1.45-1.65,29.9,29.9,0,0,0-3.6-12.32,1.83,1.83,0,0,1,3.2-1.79,33.63,33.63,0,0,1,4,13.81,1.83,1.83,0,0,1-1.67,2A2.24,2.24,0,0,1,376.9,193.14Zm-53-23.59a1.83,1.83,0,0,1-.3-3.5,62,62,0,0,1,13.63-3.62,1.83,1.83,0,0,1,.52,3.62,58.33,58.33,0,0,0-12.82,3.41A1.75,1.75,0,0,1,323.88,169.55Zm39.76.78a1.88,1.88,0,0,1-.59-.24,32.12,32.12,0,0,0-12.17-4.25,1.83,1.83,0,0,1,.52-3.62A35.75,35.75,0,0,1,365,167a1.83,1.83,0,0,1-1.32,3.36Z" style="fill:#8550fc"/><polygon points="76.29 282.06 193.6 281.46 192.29 324.3 76.29 282.06" style="fill:#7b0f8f"/><polygon points="76.29 282.06 177.17 295.33 192.29 324.3 76.29 282.06" style="fill:#de50fc"/><polygon points="76.29 282.06 217.02 252.98 193.6 281.46 76.29 282.06" style="fill:#d396ff"/><polygon points="76.29 282.06 177.17 295.33 146.68 327.35 76.29 282.06" style="fill:#d396ff"/><rect x="657.16" y="160.98" width="159.62" height="132.42" rx="33.4" style="fill:#fc8e53"/><path d="M809.68,173.81l-43.43,43.43c-.75.75-1.53,1.46-2.32,2.13a41.39,41.39,0,0,1-53.93,0c-.79-.67-1.57-1.38-2.32-2.13l-3.07-3.07-40.32-40.36a33.7,33.7,0,0,1,5.2-5.34l40.43,40.39,3.07,3.07a23.21,23.21,0,0,0,2.36,2.09,33.85,33.85,0,0,0,43.27,0,31.71,31.71,0,0,0,2.36-2.13l3.07-3,40.39-40.43A34.39,34.39,0,0,1,809.68,173.81Z" style="fill:#fff"/><path d="M713,211.93a23.21,23.21,0,0,0,2.36,2.09L710,219.37,658.87,270.5a33.51,33.51,0,0,1-1.65-8.94l47.39-47.39,5.31-5.31Z" style="fill:#fff"/><path d="M816.71,261.56a33.51,33.51,0,0,1-1.65,8.94l-51.13-51.13-5.31-5.31a31.71,31.71,0,0,0,2.36-2.13l3.07-3,5.27,5.27Z" style="fill:#fff"/><polygon points="573.55 455.42 508.4 510.42 437.28 459.55 454.25 413.15 457.75 395.44 464.65 360.37 536.01 358.42 539.08 370.91 547.4 404.62 573.55 455.42" style="fill:#f4d37e"/><path d="M539.08,370.91c-7.22,12.77-27.06,30-81.33,24.53l6.9-35.07L536,358.42Z" style="fill:#deb449"/><path d="M567.27,268.51c0,61.53-29.67,111.42-66.27,111.42S434.73,330,434.73,268.51,464.4,188.74,501,188.74,567.27,207,567.27,268.51Z" style="fill:#f4d37e"/><path d="M533.68,195s.24,35.55-31.84,38.69-61.28-16.2-68.67,25.79V221.79l35.54-20.91Z" style="fill:#deb449"/><path d="M574.2,215.84c6,21-10,114.83-19,133.84s-28.87,30-56.05,30.25c-34.68.3-46.42-16.82-53.42-26.82s-7.61-29.21-16.62-101.25,48.12-81.72,69.13-81.72,30.92-.32,34.92,13.69C563.11,182.17,568.19,194.83,574.2,215.84Zm-66.38,10.4c-19.15,8.91-53.06-9.07-66,5.51s-5,61.09-.74,80.6c1.68,7.73,23.66,1.65,37.18,8.78-18.6,17.55,0,32.51,20.46,32.51,19.42,0,37.84-6.19,25.45-29.93,9.52-10.32,29.94-.52,34.07-9.29,5.93-12.61,2.62-71.33,2.62-71.33-8.09-2.43-26.72-25.11-26.72-42.11A55.66,55.66,0,0,1,507.82,226.24Z" style="fill:#232323"/><path d="M478.25,264.48c0,5.24-2.9,9.49-6.48,9.49s-6.48-4.25-6.48-9.49,2.9-9.5,6.48-9.5S478.25,259.23,478.25,264.48Z" style="fill:#232323"/><path d="M533.68,264.48c0,5.24-2.9,9.49-6.48,9.49s-6.48-4.25-6.48-9.49,2.9-9.5,6.48-9.5S533.68,259.23,533.68,264.48Z" style="fill:#232323"/><path d="M481.08,330h38.15s-4.12,16.51-17.53,16.51S482.69,336.86,481.08,330Z" style="fill:#fff"/><path d="M500.16,274s-24.35,39,0,38.94Z" style="fill:#deb449"/><path d="M425,270.48a64,64,0,0,1-1-11.39c0-38.28,33.79-62.86,75.47-62.86s75.48,24.58,75.48,62.86a64,64,0,0,1-1,11.39h8.66c2.06-6.78,3.93-14,3.18-21.31-3.65-35.91-33.52-70.63-86.28-70.63-47.65,0-85.34,37.46-85.34,75.3,0,7.39.19,9.86,2.25,16.64Z" style="fill:#808285"/><path d="M428.34,312l-7.74.82c-8.84.93-16.8-5.14-17.79-13.57l-4.32-37.08c-1-8.43,5.39-16,14.23-17l7.74-.82a8.52,8.52,0,0,1,9.51,7.26l6,51.27A8.34,8.34,0,0,1,428.34,312Z" style="fill:#808285"/><path d="M572,312l7.74.82c8.84.93,16.81-5.14,17.79-13.57l4.33-37.08c1-8.43-5.39-16-14.23-17l-7.74-.82a8.54,8.54,0,0,0-9.52,7.26l-6,51.27A8.32,8.32,0,0,0,572,312Z" style="fill:#808285"/><path d="M519.23,175.37s-5.17,16.95-35,17S445,195,445,195,467.07,171.3,519.23,175.37Z" style="fill:#232323"/><path d="M613.19,559c-2,.67-3.87,1.29-5.46,1.87.94,8.73,2,29.14,3.09,48.18l.13,2.18c.3,5.28.63,10.42.95,15.13.58,8.62,1.16,15.85,1.76,19.93,1.76,10,3.18,20.45,4.32,30.19,2.86,24.61,3.89,45.08,3.89,45.08-4.75-.13-234.86,0-234.86,0l1.18-39.75.8-26.21.75-24.85L391.79,562a77.58,77.58,0,0,0-10-2.17c-16.77-2.9-46.4-6.06-57.73-7.22l-4.58-.48s25.46-106.27,41.11-123.1c28.46-17.91,58-24.9,97-33.65,0,0-2.43,14.73,4.81,27.41,17.48,30.49,75.27,25.07,83-9.22,1.85-8.21-.28-18.17-.28-18.17s80,16.6,95.48,35.11C652.75,451,675,541.62,675,541.62s-2.19.56-5.82,1.53C657.13,546.33,629.1,553.81,613.19,559Z" style="fill:#380f8f"/><polygon points="591.52 496.06 607.72 560.89 610.94 611.23 591.52 558.49 591.52 496.06" style="fill:#1a0845"/><polygon points="402.58 597.48 393.91 634.54 388.99 655.61 389.74 630.76 391.79 562.02 402.58 491.17 402.58 597.48" style="fill:#1a0845"/><path d="M352.93,765.49s-81.65,4.38-100.36,12.75,2.83,50.76,15.91,52.54c9.57,1.31,90.54-6.87,102-18.68Z" style="fill:#232323"/><path d="M352.93,765.49s-35.43,7.54-42,16.14-7.75,32-2.84,33,11.08,8.66,62.41-2.51Z" style="fill:#f4d37e"/><path d="M352,765.07l18.12,47.83,336.34-61.59c32.8-7.24,89.62-37.3,82.3-63.1-8.89-31.32-34.52-51.32-66.86-42.24Z" style="fill:#0b53ff"/><path d="M393.91,634.54l-4.17-3.78-21.58-19.5,13.63-51.41c-16.77-2.9-46.4-6.06-57.73-7.22l-12.88,65.74a20.26,20.26,0,0,0,9.14,21.07l67.87,42.38,23,14.36,18-29.78Z" style="fill:#f4d37e"/><path d="M685.13,617.32l-15.91-74.17c-12.09,3.18-40.12,10.66-56,15.86L628,611.24,611.9,626.37,568,667.48l18.51,29.45L618,676.49l58.4-37.93A20.28,20.28,0,0,0,685.13,617.32Z" style="fill:#f4d37e"/><path d="M658.08,764.42l-17.46,48.07-348-61.2c-32.9-6.79-70.9-32.94-71.48-52.32-.81-26.82,38-61.07,70.48-52.43Z" style="fill:#2175fb"/><path d="M658.08,764.42s85.94,5.69,105,13.3-6.78,47-19.77,49.35c-9.51,1.69-90.74-3.23-102.66-14.58Z" style="fill:#232323"/><path d="M658.08,764.42s33.9,6.91,40.84,15.24,9,31.66,4.16,32.83-10.72,9.1-62.46,0Z" style="fill:#f4d37e"/><path d="M629.07,558.52,611.12,700H383.41l-2.68-21.07L365.45,558.52a15.94,15.94,0,0,1,15.94-15.95H613.14A15.93,15.93,0,0,1,629.07,558.52Z" style="fill:#e6e7e8"/><rect x="378.92" y="699.97" width="236.68" height="13.37" rx="4.51" style="fill:#d1d3d4"/><path d="M497.26,603.2a18.71,18.71,0,0,0-4.06.46,15.81,15.81,0,0,1,.1,1.69A14.64,14.64,0,0,1,478.75,620c-.06.6-.1,1.21-.1,1.82a18.61,18.61,0,1,0,18.61-18.61Z" style="fill:#d1d3d4"/></svg>